<?xml version="1.0" encoding="UTF-8" standalone="no" ?>
<!DOCTYPE svg PUBLIC "-//W3C//DTD SVG 1.1//EN" "http://www.w3.org/Graphics/SVG/1.1/DTD/svg11.dtd">
<svg xmlns="http://www.w3.org/2000/svg" xmlns:xlink="http://www.w3.org/1999/xlink" version="1.1" width="1080" height="1080" viewBox="0 0 1080 1080" xml:space="preserve">
<desc>Created with Fabric.js 5.2.4</desc>
<defs>
</defs>
<rect x="0" y="0" width="100%" height="100%" fill="transparent"></rect>
<g transform="matrix(1 0 0 1 540 540)" id="5061c117-46f9-4ad9-998b-e6073fd059ae"  >
<rect style="stroke: none; stroke-width: 1; stroke-dasharray: none; stroke-linecap: butt; stroke-dashoffset: 0; stroke-linejoin: miter; stroke-miterlimit: 4; fill: rgb(255,255,255); fill-rule: nonzero; opacity: 1; visibility: hidden;" vector-effect="non-scaling-stroke"  x="-540" y="-540" rx="0" ry="0" width="1080" height="1080" />
</g>
<g transform="matrix(1 0 0 1 540 540)" id="61d14d12-f0cf-41e1-ba4d-7916e98f3ebc"  >
</g>
<g transform="matrix(1 0 0 1 540 540)"  >
<g style="" vector-effect="non-scaling-stroke"   >
		<g transform="matrix(1 0 0 1 -37.28 -7.01)"  >
<path style="stroke: none; stroke-width: 1; stroke-dasharray: none; stroke-linecap: butt; stroke-dashoffset: 0; stroke-linejoin: miter; stroke-miterlimit: 4; fill: rgb(237,19,19); fill-rule: nonzero; opacity: 1;" vector-effect="non-scaling-stroke"  transform=" translate(-19.68, -15.37)" d="M 27.008 14.5 L 27.252 14.534 C 28.087 14.661000000000001 30.944 15.174000000000001 34.049 16.612000000000002 C 39.225 19.007 39.414 21.845000000000002 39.358 23.313000000000002 C 39.257999999999996 25.982000000000003 36.501999999999995 27.926000000000002 34 28.838 L 33.913 28.87 C 31.389999999999997 29.77 27.439999999999998 30.364 27.439999999999998 30.364 C 29.362 28.383 30.602999999999998 25.621000000000002 30.602999999999998 22.639000000000003 C 30.602999999999998 19.414 29.185999999999996 16.513 27.006999999999998 14.499000000000002 z M 16.89 0.026 L 23.47 12.336 C 22.231566736755344 11.86733819716022 20.918143962530674 11.628102779564086 19.593999999999994 11.63 C 13.512999999999998 11.63 8.584999999999997 16.558 8.584999999999997 22.637999999999998 C 8.584999999999997 25.717999999999996 9.848999999999997 28.497999999999998 11.884999999999998 30.497999999999998 L 11.693999999999997 30.493999999999996 C 10.976257230273035 30.47293526311931 10.261016118071227 30.399405802986415 9.553999999999995 30.273999999999994 L 9.398999999999997 30.243999999999996 C 8.111999999999998 29.988999999999997 5.658999999999997 29.270999999999997 3.7739999999999974 28.138999999999996 C 1.815 26.96 -0.16 25.054 0.01 22.92 L 0.056 22.356 C 0.224 20.484 0.626 18.773000000000003 4.559 13.153000000000002 C 8.367 7.718 15.022 1.683 16.565 0.313 z M 19.594 14.557 C 24.05480385917349 14.557000092220619 27.670999833019792 18.173196140826505 27.670999833019792 22.633999999999997 C 27.670999833019792 27.09480385917349 24.05480385917349 30.710999907779374 19.594 30.711 C 15.18274803776431 30.641583092379143 11.643102320985879 27.04579811203911 11.643102320985879 22.634 C 11.643102320985879 18.222201887960885 15.182748037764311 14.626416907620854 19.594 14.556999999999999 z" stroke-linecap="round" />
</g>
		<g transform="matrix(1 0 0 1 0.07 0)"  >
<path style="stroke: none; stroke-width: 1; stroke-dasharray: none; stroke-linecap: butt; stroke-dashoffset: 0; stroke-linejoin: miter; stroke-miterlimit: 4; fill: rgb(237,19,19); fill-rule: nonzero; opacity: 1;" vector-effect="non-scaling-stroke"  transform=" translate(-57.03, -22.38)" d="M 78.923 11.797 C 75.039 11.794 71.82300000000001 15 71.60900000000001 19.037 L 71.60300000000001 19.16 L 71.60300000000001 19.794 C 71.75800000000001 23.855 74.998 27.088 78.923 27.087 C 82.925 27.079 86.24600000000001 23.701 86.24600000000001 19.481 C 86.24400000000001 15.221000000000002 82.92300000000002 11.805000000000001 78.923 11.797 z M 54.769000000000005 11.797 C 50.88700000000001 11.794 47.669000000000004 15 47.453 19.037 L 47.448 19.16 L 47.446 19.794 C 47.604 23.855 50.846 27.088 54.769 27.087 C 58.772999999999996 27.079 62.092 23.701 62.092 19.481 C 62.092 15.221000000000002 58.766999999999996 11.805000000000001 54.769 11.797 z M 103.034 11.797 C 99.033 11.805 95.71000000000001 15.221 95.71000000000001 19.481 C 95.71000000000001 23.701 99.031 27.079 103.034 27.087000000000003 C 106.924 27.087000000000003 110.14200000000001 23.919000000000004 110.358 19.926000000000002 L 110.363 19.804000000000002 L 110.363 19.169 C 110.207 15.065000000000001 106.961 11.794 103.033 11.797 z M 71.48 0 L 71.512 11.209 C 73.645 9.091999999999999 76.037 8.184 78.92 8.189 C 84.996 8.189 89.804 13.25 89.816 19.485 C 89.804 25.634999999999998 84.994 30.694 78.92 30.695 C 75.396 30.697 72.392 29.21 70.53 26.671 L 70.315 26.378999999999998 C 69.827 25.711999999999996 69.41799999999999 25.130999999999997 69.109 24.416999999999998 C 68.216 22.357 68.041 20.595 68.02799999999999 19.916999999999998 L 68.02699999999999 19.846999999999998 L 68.02699999999999 0.072 z M 47.33 0 L 47.36 11.209 C 49.493 9.091999999999999 51.882999999999996 8.184 54.769 8.189 C 60.842999999999996 8.189 65.651 13.25 65.664 19.485 C 65.651 25.634999999999998 60.843 30.694 54.769000000000005 30.695 C 51.28900000000001 30.697 48.316 29.248 46.45100000000001 26.77 L 46.16100000000001 26.378999999999998 C 45.67300000000001 25.711999999999996 45.26500000000001 25.130999999999997 44.95600000000001 24.416999999999998 C 44.04800000000001 22.319 43.88200000000001 20.531999999999996 43.87600000000001 19.88 L 43.87600000000001 0.072 z M 110.46600000000001 0.001 L 113.91600000000001 0.07100000000000001 L 113.91600000000001 19.853 C 113.91600000000001 20.473000000000003 113.75900000000001 22.289 112.83600000000001 24.424 C 112.48600000000002 25.241 112.00200000000001 25.881999999999998 111.41700000000002 26.679 C 109.58200000000002 29.183 106.63600000000001 30.663999999999998 103.17500000000001 30.703 L 103.028 30.703 C 96.95700000000001 30.703 92.15100000000001 25.642 92.14 19.491 C 92.15 13.254 96.955 8.190999999999999 103.028 8.190999999999999 C 105.86500000000001 8.185999999999998 108.21900000000001 9.065 110.328 11.108999999999998 L 110.433 11.211999999999998 z M 100.816 37.754999999999995 C 100.551 37.754999999999995 100.295 37.800999999999995 100.054 37.888999999999996 C 99.81400000000001 37.979 99.59400000000001 38.102999999999994 99.399 38.260999999999996 C 99.20133631116609 38.41878980414413 99.03366668865594 38.610847735383025 98.904 38.827999999999996 C 98.771 39.047999999999995 98.67699999999999 39.288 98.63199999999999 39.55 L 102.972 39.55 C 102.92374661082843 39.30201066145194 102.83236147407496 39.0644093058929 102.702 38.848 C 102.566 38.628 102.402 38.437 102.21 38.275 C 102.0170297069931 38.11419363472347 101.79918447802392 37.98585070912922 101.565 37.894999999999996 C 101.32609538622049 37.801350543074655 101.07160144438278 37.75384500726495 100.815 37.754999999999995 z M 56.171 37.754999999999995 C 55.91106034194294 37.754090039246414 55.653034576958824 37.799464648836796 55.409 37.888999999999996 C 55.17123249085132 37.976457427281844 54.94931976689993 38.10210664084335 54.751999999999995 38.260999999999996 C 54.55535978427153 38.419856237548274 54.387861504512706 38.61171790345384 54.257 38.827999999999996 C 54.123 39.047999999999995 54.033 39.288 53.983 39.55 L 58.32599999999999 39.55 C 58.27705762268994 39.30174698377882 58.18463701428276 39.06409399073179 58.05299999999999 38.848 C 57.78937601790194 38.41449280729463 57.390580453695584 38.079645078053524 56.91799999999999 37.894999999999996 C 56.67993517823605 37.80206751484999 56.426560424465464 37.75458094787826 56.17099999999999 37.754999999999995 z M 39.546 37.754999999999995 C 39.275999999999996 37.754999999999995 39.022 37.800999999999995 38.783 37.888999999999996 C 38.541000000000004 37.979 38.323 38.102999999999994 38.127 38.260999999999996 C 37.929 38.41799999999999 37.767 38.608 37.632000000000005 38.827999999999996 C 37.49596993302535 39.04924249126134 37.40300337882801 39.29421275451126 37.358000000000004 39.55 L 41.70100000000001 39.55 C 41.65236748671399 39.301811918759434 41.560286796393626 39.064162490064966 41.42900000000001 38.848 C 41.296712370171704 38.63249566879693 41.131359462398386 38.4391340031763 40.93900000000001 38.275 C 40.74550535422817 38.115464683096604 40.528201822212445 37.98724210209353 40.29500000000001 37.894999999999996 C 40.05627625693651 37.80193593358181 39.80222186187682 37.754449130766915 39.54600000000001 37.754999999999995 z M 68.589 37.754999999999995 C 68.319 37.754999999999995 68.065 37.800999999999995 67.824 37.888999999999996 C 67.58708433497618 37.976973572301794 67.36591031875119 38.10258690670743 67.169 38.260999999999996 C 66.76777183637635 38.585429394552854 66.49573759229068 39.042602980767235 66.402 39.55 L 70.744 39.55 C 70.69370212458688 39.30198838123425 70.60101050713554 39.06450839783705 70.47 38.848 C 70.20778280153289 38.41367535843523 69.80898301524545 38.07852880082329 69.336 37.894999999999996 C 69.09803400493439 37.801722627365244 68.844593193142 37.75422368004137 68.589 37.754999999999995 z M 49.215 37.73499999999999 C 48.899 37.73499999999999 48.605000000000004 37.78999999999999 48.330000000000005 37.898999999999994 C 48.056000000000004 38.00899999999999 47.816 38.16199999999999 47.608000000000004 38.358999999999995 C 47.40090727419565 38.556142317567684 47.23651087756456 38.79371723443829 47.12500000000001 39.056999999999995 C 47.00738025633449 39.33536511944006 46.94783091449673 39.63481323839568 46.95000000000001 39.937 C 46.95000000000001 40.245 47.01000000000001 40.532999999999994 47.12500000000001 40.802 C 47.24100000000001 41.069 47.40100000000001 41.304 47.599000000000004 41.506 C 47.797000000000004 41.709 48.03 41.869 48.300000000000004 41.985 C 48.569 42.102 48.855000000000004 42.16 49.163000000000004 42.16 C 49.472 42.16 49.763000000000005 42.104 50.039 41.995 C 50.313 41.885 50.552 41.735 50.754000000000005 41.541999999999994 C 50.956 41.35099999999999 51.117000000000004 41.12199999999999 51.239000000000004 40.858999999999995 C 51.358000000000004 40.593999999999994 51.42100000000001 40.306999999999995 51.42100000000001 39.998 C 51.42100000000001 39.689 51.373000000000005 39.405 51.28600000000001 39.144999999999996 C 51.204182594512716 38.89808601314315 51.06819958553084 38.6725865510124 50.888000000000005 38.485 L 50.82900000000001 38.425 C 50.61900000000001 38.205 50.373000000000005 38.035 50.092000000000006 37.915 C 49.8151805871868 37.79524906048496 49.51660936885147 37.733968764817504 49.215 37.735 z M 29.437000000000005 37.74499999999999 C 28.84786968155618 37.743885224905334 28.28308969371059 37.97996109729771 27.870000000000005 38.39999999999999 C 27.670829888093493 38.6050863299745 27.510562598761414 38.84464018527636 27.397000000000006 39.10699999999999 C 27.279452697671235 39.3801215562969 27.219863012156086 39.67466485898607 27.222000000000005 39.971999999999994 C 27.222000000000005 40.28999999999999 27.280000000000005 40.581999999999994 27.397000000000006 40.85399999999999 C 27.508924393355493 41.11872372782128 27.67399784362091 41.35765478366937 27.882000000000005 41.55599999999999 C 28.31842218494244 41.96067284935505 28.892849477203285 42.18350485625325 29.488000000000007 42.17899999999999 C 30.099860418647186 42.177909316707726 30.68498700034251 41.9281205477175 31.109000000000005 41.48699999999999 C 31.329000000000004 41.26799999999999 31.482000000000006 41.027999999999984 31.569000000000006 40.764999999999986 C 31.65720753760144 40.48904411985537 31.700426844383177 40.200690307420984 31.697000000000006 39.91099999999999 C 31.69631001861703 39.326274360217816 31.456386801249423 38.76729662336889 31.033000000000005 38.36399999999999 C 30.825060413970046 38.16793911513713 30.58128081724321 38.01379435620401 30.315000000000005 37.90999999999999 C 30.035473379087794 37.79972064387961 29.737491321390035 37.74372173782023 29.437000000000005 37.74499999999999 z M 77.364 37.75499999999999 C 76.77448329320005 37.75561207146564 76.21058659696281 37.99604433759497 75.802 38.420999999999985 C 75.39308955091927 38.84556458966506 75.16536598614803 39.41254247297737 75.167 40.00199999999999 C 75.167 40.30599999999999 75.227 40.58999999999999 75.342 40.85499999999999 C 75.46 41.11799999999999 75.618 41.35099999999999 75.817 41.54999999999999 C 76.45221540097516 42.18434994039176 77.4104606602591 42.36632535371875 78.234 42.00899999999999 C 78.5 41.888999999999996 78.72999999999999 41.72599999999999 78.92099999999999 41.51899999999999 C 79.11399999999999 41.31299999999999 79.26499999999999 41.07499999999999 79.36999999999999 40.80299999999999 C 79.47760240281103 40.524544832058396 79.53253450971809 40.2285218115037 79.532 39.92999999999999 C 79.532 39.62199999999999 79.475 39.33999999999999 79.36999999999999 39.08599999999999 C 79.25439242019529 38.81633653311009 79.08414461443695 38.573563162098694 78.86999999999999 38.37299999999999 C 78.67028628754035 38.180737463835285 78.43667639914794 38.02714489570501 78.181 37.91999999999999 C 77.92250717380261 37.81070359938796 77.64464938009232 37.754587888295916 77.364 37.75499999999999 z M 7.347999999999999 37.75499999999999 C 7.037999999999999 37.75499999999999 6.747999999999999 37.81499999999999 6.478999999999999 37.93499999999999 C 6.2139999999999995 38.054999999999986 5.978999999999999 38.216999999999985 5.784999999999999 38.420999999999985 C 5.375548448545446 38.84521428462054 5.147732904902751 39.412421173595504 5.1499999999999995 40.00199999999999 C 5.153948614596916 40.58354775524983 5.387586468807716 41.13996529112417 5.799999999999999 41.54999999999999 C 6.209988338887322 41.96125731046619 6.76729333360267 42.19166764419863 7.348000000000001 42.18999999999999 C 7.664 42.18999999999999 7.955 42.12999999999999 8.218 42.00899999999999 C 8.483 41.888999999999996 8.711 41.72599999999999 8.906 41.51899999999999 C 9.097000000000001 41.31299999999999 9.246 41.07499999999999 9.351 40.80299999999999 C 9.458 40.53099999999999 9.513000000000002 40.23999999999999 9.513000000000002 39.92999999999999 C 9.513000000000002 39.62199999999999 9.458000000000002 39.33999999999999 9.351 39.08599999999999 C 9.117547193067328 38.5597965607543 8.691850002917198 38.142684860153416 8.161 37.919999999999995 C 7.903967997002402 37.81051796103635 7.6273767832054125 37.75438321284877 7.348 37.754999999999995 z M 84.349 37.75499999999999 C 84.036 37.75499999999999 83.747 37.80999999999999 83.46900000000001 37.91999999999999 C 82.93576585096179 38.12954070358713 82.50502671426285 38.53840216556615 82.26800000000001 39.05999999999999 C 82.14800000000001 39.32499999999999 82.08800000000001 39.61199999999999 82.08800000000001 39.92199999999999 C 82.08800000000001 40.22999999999999 82.12800000000001 40.514999999999986 82.218 40.77599999999999 C 82.303 41.03799999999999 82.456 41.27899999999999 82.674 41.49899999999999 C 82.888 41.71899999999999 83.134 41.88899999999999 83.411 42.008999999999986 C 83.691 42.128999999999984 83.985 42.19099999999999 84.296 42.19099999999999 C 84.89216264353381 42.196764530375305 85.46777840542755 41.973391249640414 85.90400000000001 41.566999999999986 C 86.11000000000001 41.36999999999998 86.27400000000002 41.136999999999986 86.39000000000001 40.86499999999999 C 86.50600000000001 40.591999999999985 86.56500000000001 40.298999999999985 86.56500000000001 39.98299999999999 C 86.56500000000001 39.67399999999999 86.50500000000001 39.38399999999999 86.39000000000001 39.11799999999999 C 86.27744063129423 38.854125546592016 86.11554303305813 38.614164116921316 85.91300000000001 38.41099999999999 C 85.50217608732126 37.989319949355405 84.93771420578774 37.75256355914697 84.34900000000002 37.75499999999999 z M 60.401 37.14599999999999 L 62.353 41.817999999999984 L 64.306 37.14599999999999 L 65.13 37.14599999999999 L 62.745 42.786999999999985 L 61.951 42.786999999999985 L 59.575 37.14599999999999 z M 36.078 37.033999999999985 L 36.078 37.76399999999998 C 35.89873799255682 37.759145860831005 35.71952276747708 37.77525509454604 35.544000000000004 37.81199999999998 C 35.35511524254401 37.84979348806435 35.177092139637985 37.929408426600055 35.023 38.04499999999998 C 34.79682896485521 38.20597577487454 34.63829803999787 38.44501903460324 34.578 38.71599999999998 C 34.50707630968208 39.01408452280221 34.47216029394863 39.31959966046983 34.474000000000004 39.625999999999976 L 34.474000000000004 42.78699999999998 L 33.708000000000006 42.78699999999998 L 33.708000000000006 39.14699999999998 C 33.715 38.99099999999998 33.730000000000004 38.851999999999975 33.754000000000005 38.73499999999998 L 33.784000000000006 38.60299999999998 C 33.797849653066386 38.54652845812266 33.81453750015964 38.4907910488312 33.834 38.43599999999998 C 33.861000000000004 38.33999999999998 33.891000000000005 38.25299999999998 33.926 38.177999999999976 C 34.14 37.76499999999998 34.434000000000005 37.46299999999997 34.809000000000005 37.26899999999998 C 35.18900000000001 37.077999999999975 35.61000000000001 36.998999999999974 36.078 37.03399999999998 z M 107.296 37.042999999999985 C 107.664 37.04999999999998 108.025 37.128999999999984 108.373 37.27599999999998 C 108.718 37.42299999999998 109.01700000000001 37.65199999999998 109.263 37.960999999999984 C 109.483 38.22999999999998 109.62400000000001 38.51699999999998 109.68700000000001 38.82199999999998 C 109.74900000000001 39.12799999999998 109.78000000000002 39.460999999999984 109.78000000000002 39.81899999999998 L 109.78000000000002 42.78699999999998 L 109.01700000000001 42.78699999999998 L 109.01700000000001 39.81099999999998 C 109.01765017291393 39.575486658395924 108.99858359724169 39.34033222510493 108.96000000000001 39.107999999999976 C 108.91912173968116 38.876469506310556 108.82610822807347 38.65727222344095 108.688 38.46699999999998 C 108.53165003560468 38.242233595707994 108.31741958010947 38.063938571457136 108.068 37.95099999999998 C 107.81814467398098 37.84081542240982 107.54900593996129 37.78100681484989 107.276 37.77499999999998 C 107.004521475044 37.78620370467434 106.73770712910563 37.84934297737731 106.49 37.96099999999998 C 106.25 38.07299999999998 106.047 38.24099999999998 105.881 38.46699999999998 C 105.736 38.66699999999998 105.646 38.88199999999998 105.607 39.107999999999976 C 105.56924449726309 39.340433632126825 105.5501834416618 39.575519984542716 105.55 39.810999999999986 L 105.55 42.78699999999998 L 104.788 42.78699999999998 L 104.788 39.82 C 104.788 39.462 104.821 39.13 104.88 38.823 C 104.943 38.518 105.085 38.231 105.30199999999999 37.963 C 105.55 37.653 105.85 37.423 106.202 37.27 C 106.54744965459594 37.12088396521375 106.91974070763064 37.04397557582998 107.29599999999999 37.044000000000004 z M 18.322000000000003 37.14599999999999 L 20.096000000000004 41.868999999999986 L 21.407000000000004 37.83799999999999 L 22.037000000000003 37.83799999999999 L 23.338 41.868999999999986 L 25.145 37.14599999999999 L 25.951999999999998 37.14599999999999 L 23.802 42.786999999999985 L 22.927 42.786999999999985 L 21.719 39.04499999999999 L 20.531000000000002 42.786999999999985 L 19.652 42.786999999999985 L 17.516000000000002 37.14599999999999 z M 73.322 35.16699999999999 L 73.322 42.786999999999985 L 72.558 42.786999999999985 L 72.558 35.16699999999999 z M 13.907000000000004 35.16699999999999 L 13.907000000000004 35.856999999999985 L 13.762000000000004 35.856999999999985 C 13.370000000000005 35.856999999999985 13.064000000000004 35.95299999999998 12.843000000000004 36.14599999999999 C 12.625000000000004 36.338999999999984 12.515000000000004 36.633999999999986 12.515000000000004 37.033999999999985 L 12.515000000000004 37.14599999999999 L 13.399000000000004 37.14599999999999 L 13.399000000000004 37.83799999999999 L 12.515000000000004 37.83799999999999 L 12.515000000000004 42.78799999999999 L 11.749000000000004 42.78799999999999 L 11.749000000000004 37.83799999999999 L 10.873000000000005 37.83799999999999 L 10.873000000000005 37.14599999999999 L 11.749000000000004 37.14599999999999 C 11.733091948898414 36.85918477742126 11.773869001762826 36.57204636350102 11.869000000000003 36.30099999999999 C 11.963000000000003 36.05299999999999 12.097000000000003 35.84599999999999 12.271000000000003 35.676999999999985 C 12.448000000000002 35.50799999999999 12.661000000000003 35.381999999999984 12.919000000000002 35.29499999999999 C 13.171000000000003 35.20899999999999 13.451000000000002 35.16699999999999 13.762000000000002 35.16699999999999 z M 16.011000000000003 35.16699999999999 L 16.011000000000003 37.146999999999984 L 17.319000000000003 37.146999999999984 L 17.319000000000003 37.83699999999998 L 16.01 37.83699999999998 L 16.01 42.786999999999985 L 15.247000000000002 42.786999999999985 L 15.247000000000002 37.83699999999998 L 14.070000000000002 37.83699999999998 L 14.070000000000002 37.146999999999984 L 15.247000000000002 37.146999999999984 L 15.247000000000002 35.16699999999999 z M 112.49199999999999 35.16699999999999 L 112.49199999999999 37.146999999999984 L 113.80099999999999 37.146999999999984 L 113.80099999999999 37.83699999999998 L 112.49199999999999 37.83699999999998 L 112.49199999999999 42.786999999999985 L 111.72899999999998 42.786999999999985 L 111.72899999999998 37.83699999999998 L 110.55299999999998 37.83699999999998 L 110.55299999999998 37.146999999999984 L 111.72899999999998 37.146999999999984 L 111.72899999999998 35.16699999999999 z M 94.63399999999999 37.00099999999999 C 94.82799999999999 37.00899999999999 95.01399999999998 37.04099999999999 95.18699999999998 37.09499999999999 C 95.36399999999999 37.148999999999994 95.52899999999998 37.21699999999999 95.67899999999999 37.294999999999995 C 95.829 37.37499999999999 95.96799999999999 37.464999999999996 96.08599999999998 37.565 C 96.32263662235839 37.7481510073059 96.50993890020847 37.98734804470709 96.63099999999999 38.260999999999996 C 96.68499999999999 38.391 96.72099999999999 38.526999999999994 96.74299999999998 38.66799999999999 C 96.76399999999998 38.80899999999999 96.77499999999998 38.95499999999999 96.77899999999998 39.105999999999995 L 96.78299999999999 39.45799999999999 L 96.78299999999999 42.8 L 96.01899999999999 42.8 L 96.01899999999999 39.653999999999996 C 96.01899999999999 39.446999999999996 96.00899999999999 39.227 95.984 38.994 C 95.96416761426985 38.77207822144828 95.88848377907482 38.558787413171345 95.764 38.374 C 95.61942052345643 38.166921045629 95.41945796348737 38.004733042049246 95.187 37.906 C 94.95608469373896 37.81129565797279 94.70857060385593 37.76369679453374 94.459 37.766 C 94.218 37.766 93.986 37.823 93.759 37.936 C 93.531 38.05 93.347 38.206 93.212 38.406 C 93.087 38.583999999999996 93.01700000000001 38.786 92.99900000000001 39.009 C 92.98256276264988 39.2236163909727 92.97389043140547 39.438756916074496 92.97300000000001 39.65400000000001 L 92.97300000000001 42.800000000000004 L 92.21000000000001 42.800000000000004 L 92.21000000000001 39.654 C 92.21000000000001 39.447 92.203 39.233000000000004 92.18400000000001 39.009 C 92.16827419971435 38.792711267296184 92.09508736129663 38.58454304292882 91.97200000000001 38.406 C 91.83235364783927 38.20559019116659 91.6441507582013 38.04388021286706 91.42500000000001 37.936 C 91.20744365543504 37.82540599785835 90.96704994958873 37.76719099786707 90.72300000000001 37.766 C 90.47311037579888 37.763751545323295 90.22528006912758 37.81134584290077 89.99400000000001 37.906 C 89.5481645661888 38.09350819653682 89.2425987770266 38.512217993272934 89.20000000000002 38.994 C 89.1765422879933 39.213235091280744 89.16419316499746 39.43351674472025 89.16300000000001 39.653999999999996 L 89.16300000000001 42.8 L 88.40100000000001 42.8 L 88.40100000000001 39.58 C 88.40100000000001 39.455999999999996 88.40100000000001 39.335 88.403 39.22 L 88.406 39.105 C 88.408 38.95399999999999 88.41900000000001 38.808 88.43900000000001 38.666999999999994 C 88.48323373083107 38.37381341824859 88.60472812382787 38.09768979780133 88.79100000000001 37.867 C 88.88213410287713 37.75558678546654 88.98469434141562 37.65403203946275 89.09700000000001 37.564 C 89.21900000000001 37.464 89.35100000000001 37.374 89.507 37.294 C 89.66271668428278 37.21223972149141 89.82576543849844 37.145279247480865 89.994 37.093999999999994 C 90.169 37.038999999999994 90.357 37.007999999999996 90.549 36.99999999999999 C 90.89438532170436 36.99037711995333 91.23818499044941 37.050227507390645 91.56 37.175999999999995 C 91.904 37.306 92.20700000000001 37.544 92.468 37.888 L 92.488 37.91 C 92.503371558245 37.92749740769571 92.51772839846028 37.94586080797107 92.531 37.964999999999996 L 92.566 38.017999999999994 C 92.57600000000001 38.03399999999999 92.586 38.047999999999995 92.593 38.06199999999999 L 92.675 37.94299999999999 L 92.716 37.88799999999999 C 92.976 37.54399999999999 93.27799999999999 37.30699999999999 93.625 37.17599999999999 C 93.968 37.045999999999985 94.305 36.987999999999985 94.635 36.999999999999986 z M 52.137999999999984 35.15599999999999 L 52.137999999999984 40.04399999999999 C 52.137999999999984 40.46399999999999 52.06199999999998 40.84799999999999 51.908999999999985 41.19899999999999 C 51.76099999999998 41.54899999999999 51.55299999999998 41.85099999999999 51.28199999999998 42.10199999999999 C 51.00862728355225 42.357359364329945 50.68793793274731 42.556771068696996 50.33799999999998 42.68899999999999 C 49.96515495747809 42.83407883514474 49.5680594082601 42.90670998688204 49.16799999999998 42.90299999999999 C 48.76299999999998 42.90299999999999 48.354999999999976 42.82399999999999 47.95199999999998 42.669999999999995 C 47.54499999999998 42.513999999999996 47.183999999999976 42.245 46.86599999999998 41.85999999999999 C 46.68192661926087 41.60473538192079 46.526964442154295 41.32969428835501 46.403999999999975 41.03999999999999 C 46.25411348611938 40.68946918270017 46.1801578118838 40.31117057255504 46.186999999999976 39.92999999999999 C 46.186999999999976 39.51199999999999 46.26799999999998 39.120999999999995 46.433999999999976 38.75999999999999 C 46.75521630445163 38.048277272376396 47.34253161206204 37.49075852377067 48.06999999999998 37.206999999999994 C 48.442748817260046 37.062384505197066 48.84027354205314 36.99239297245572 49.23999999999998 37.00099999999999 C 49.69399999999998 37.01599999999999 50.08999999999998 37.09999999999999 50.42499999999998 37.25499999999999 C 50.76099999999998 37.40899999999999 51.02099999999998 37.57699999999999 51.200999999999986 37.75499999999999 L 51.25199999999999 37.81199999999999 C 51.26999999999999 37.831999999999994 51.28899999999999 37.85399999999999 51.307999999999986 37.87799999999999 L 51.36399999999998 37.95199999999999 L 51.37599999999998 37.971999999999994 L 51.37599999999998 35.15599999999999 z M 29.437999999999985 37.01299999999999 C 29.857999999999986 37.01299999999999 30.246999999999986 37.08299999999999 30.608999999999984 37.22399999999999 C 30.968999999999983 37.36399999999999 31.284999999999982 37.55999999999999 31.550999999999984 37.81099999999999 C 31.819999999999983 38.06099999999999 32.02999999999999 38.361999999999995 32.18099999999998 38.71099999999999 C 32.332999999999984 39.06099999999999 32.40699999999998 39.44699999999999 32.40699999999998 39.864999999999995 L 32.40699999999998 42.778999999999996 L 31.64699999999998 42.778999999999996 L 31.64699999999998 41.934999999999995 C 31.64312664603677 41.94131915203013 31.638780919443807 41.94733631192808 31.63399999999998 41.952999999999996 L 31.57699999999998 42.022 C 31.54325154480288 42.06366998353928 31.507544720724265 42.10371501988913 31.46999999999998 42.141999999999996 C 31.284999999999982 42.327 31.02699999999998 42.495999999999995 30.691999999999982 42.65 C 30.35699999999998 42.804 29.964999999999982 42.888999999999996 29.508999999999983 42.903 C 29.098999999999982 42.917 28.708999999999982 42.849 28.340999999999983 42.702999999999996 C 27.98092046607479 42.55969823505312 27.65114204707707 42.34968502377782 27.368999999999982 42.083999999999996 C 27.090662021629463 41.81624502385221 26.865382708449662 41.49834334245241 26.70499999999998 41.147 C 26.53876056551225 40.780172530996005 26.453819080323086 40.381732150670935 26.45599999999998 39.979 C 26.45599999999998 39.566 26.52799999999998 39.197 26.67299999999998 38.871 C 26.81699999999998 38.545 26.97299999999998 38.271 27.13699999999998 38.052 C 27.455999999999978 37.668 27.81699999999998 37.399 28.22099999999998 37.245 C 28.608789963500914 37.09414571610109 29.020908986248706 37.01551774465578 29.436999999999976 37.013 z M 56.16399999999999 37.02299999999999 C 56.61199999999999 37.02299999999999 57.02999999999999 37.11699999999999 57.420999999999985 37.30699999999999 C 57.810999999999986 37.49499999999999 58.14899999999999 37.76399999999999 58.438999999999986 38.11399999999999 C 58.6742342745819 38.410266193090884 58.84857661933058 38.75011481833198 58.951999999999984 39.11399999999999 C 58.999999999999986 39.28399999999999 59.036999999999985 39.46399999999999 59.057999999999986 39.64899999999999 C 59.07799999999999 39.83499999999999 59.09099999999999 40.030999999999985 59.09999999999999 40.234999999999985 L 53.98399999999999 40.234999999999985 C 53.990999999999985 40.502999999999986 54.05999999999999 40.755999999999986 54.18699999999999 40.99299999999999 C 54.31399999999999 41.22999999999999 54.47699999999999 41.43499999999999 54.67399999999999 41.61099999999999 C 54.870999999999995 41.78499999999999 55.09199999999999 41.92399999999999 55.34199999999999 42.02799999999999 C 55.596999999999994 42.12999999999999 55.85099999999999 42.18299999999999 56.111999999999995 42.18299999999999 C 56.318999999999996 42.18299999999999 56.52799999999999 42.154999999999994 56.733999999999995 42.09899999999999 C 56.94 42.04299999999999 57.13399999999999 41.96499999999999 57.31099999999999 41.85599999999999 C 57.49078588780032 41.750728304794656 57.65390562131287 41.61928885010479 57.794999999999995 41.46599999999999 C 57.943 41.31199999999998 58.056999999999995 41.13899999999999 58.13999999999999 40.94699999999999 L 58.93399999999999 40.94699999999999 C 58.83399999999999 41.228999999999985 58.69399999999999 41.487999999999985 58.50999999999999 41.728999999999985 C 58.32499999999999 41.96899999999999 58.10699999999999 42.176999999999985 57.86199999999999 42.350999999999985 C 57.621999999999986 42.52599999999998 57.35299999999999 42.664999999999985 57.063999999999986 42.76399999999998 C 56.77599999999999 42.86399999999998 56.48399999999999 42.91399999999998 56.18399999999998 42.91399999999998 C 55.398120506992434 42.91876068753975 54.64260746966825 42.61079918280189 54.08399999999998 42.05799999999998 C 53.81675635531646 41.78842520063098 53.60328803464488 41.470428672062994 53.454999999999984 41.12099999999998 C 53.297318198197885 40.757231022150755 53.21760561696827 40.36445920096379 53.22099999999998 39.96799999999998 C 53.215142084031065 39.18680979031925 53.52191718035935 38.43571489484882 54.07299999999998 37.881999999999984 C 54.33799999999998 37.61799999999998 54.64899999999998 37.408999999999985 55.00899999999998 37.253999999999984 C 55.373991783646446 37.09830738392098 55.76720273198824 37.019665194252624 56.16399999999998 37.02299999999998 z M 68.576 37.02299999999999 C 69.026 37.02299999999999 69.44099999999999 37.11699999999999 69.83099999999999 37.30699999999999 C 70.40388406053113 37.58680536675731 70.87208848856665 38.04274396022603 71.16699999999999 38.60799999999999 C 71.24999999999999 38.77399999999999 71.314 38.94099999999999 71.36199999999998 39.11399999999999 C 71.40999999999998 39.28399999999999 71.44499999999998 39.46399999999999 71.46499999999997 39.64899999999999 C 71.48699999999998 39.83499999999999 71.49999999999997 40.030999999999985 71.50699999999998 40.234999999999985 L 66.40199999999997 40.234999999999985 C 66.40899999999998 40.502999999999986 66.47499999999997 40.755999999999986 66.60199999999998 40.99299999999999 C 66.72899999999998 41.22999999999999 66.89199999999998 41.43499999999999 67.08599999999997 41.61099999999999 C 67.28199999999997 41.78499999999999 67.50699999999998 41.92399999999999 67.75699999999998 42.02799999999999 C 68.00699999999998 42.12999999999999 68.26299999999998 42.18299999999999 68.52499999999998 42.18299999999999 C 68.73299999999998 42.18299999999999 68.93899999999998 42.154999999999994 69.14499999999998 42.09899999999999 C 69.55130151427848 41.99218587459264 69.91933469638231 41.77316801104309 70.20699999999998 41.46699999999999 C 70.34999999999998 41.31199999999999 70.46399999999998 41.13899999999999 70.54899999999998 40.94699999999999 L 71.34199999999998 40.94699999999999 C 71.24531841254748 41.22911023579289 71.10273541458518 41.49332801874672 70.91999999999999 41.728999999999985 C 70.73499999999999 41.96899999999999 70.51699999999998 42.176999999999985 70.27299999999998 42.350999999999985 C 70.02857903303381 42.527459103010976 69.75930893589167 42.66664377149622 69.47399999999998 42.76399999999998 C 69.18499999999997 42.86399999999998 68.89299999999997 42.91399999999998 68.59799999999997 42.91399999999998 C 68.18399999999997 42.91399999999998 67.79999999999997 42.83699999999998 67.43799999999997 42.68599999999998 C 67.08600368318747 42.54129458763247 66.76642842178249 42.32779111511936 66.49799999999998 42.05799999999998 C 66.23167767608481 41.78787899846304 66.01862884931323 41.47000200692646 65.86999999999998 41.12099999999998 C 65.71310522539223 40.75698401958005 65.6334266680348 40.36437984593429 65.63599999999998 39.96799999999998 C 65.63172535934397 39.1865022474282 65.93994059462709 38.435703755863514 66.49208151444688 37.88262382087397 C 67.04422243426666 37.32954388588442 67.79449611206074 37.02005331315919 68.57599999999998 37.02299999999998 z M 39.535 37.02299999999999 C 39.980999999999995 37.02299999999999 40.4 37.11699999999999 40.785999999999994 37.30699999999999 C 41.175 37.49499999999999 41.51499999999999 37.76399999999999 41.806 38.11399999999999 C 42.04384760534626 38.408866848886014 42.219082649224994 38.74912907000977 42.321 39.11399999999999 C 42.369 39.28399999999999 42.400999999999996 39.46399999999999 42.422 39.64899999999999 C 42.442 39.83499999999999 42.456999999999994 40.030999999999985 42.461999999999996 40.234999999999985 L 37.358 40.234999999999985 C 37.364 40.502999999999986 37.431999999999995 40.755999999999986 37.558 40.99299999999999 C 37.69 41.22999999999999 37.848 41.43499999999999 38.043 41.61099999999999 C 38.238 41.78499999999999 38.464 41.92399999999999 38.714999999999996 42.02799999999999 C 38.964999999999996 42.12999999999999 39.224999999999994 42.18299999999999 39.483999999999995 42.18299999999999 C 39.69 42.18299999999999 39.895999999999994 42.154999999999994 40.102 42.09899999999999 C 40.50902046141942 41.992530235215916 40.877787468470444 41.773488178396136 41.166 41.46699999999999 C 41.311 41.31199999999999 41.421 41.13899999999999 41.506 40.94699999999999 L 42.299 40.94699999999999 C 42.203293116709716 41.22973637449299 42.06025908886312 41.494163347958796 41.876 41.728999999999985 C 41.50743242390083 42.20945963960527 41.00451787999778 42.56967870738358 40.431 42.76399999999998 C 40.141999999999996 42.86399999999998 39.851 42.91399999999998 39.555 42.91399999999998 C 39.15727210099106 42.916639570009885 38.76309142671681 42.8390958308084 38.396 42.68599999999998 C 38.04428367583237 42.54297820001788 37.72569854728543 42.3292266394116 37.46 42.05799999999998 C 37.19196464642391 41.78845181827847 36.977505487044375 41.47049575445153 36.828 41.12099999999998 C 36.67198585289261 40.756776876580695 36.59299772302016 40.36421948975772 36.596000000000004 39.96799999999998 C 36.596000000000004 39.55699999999998 36.672000000000004 39.170999999999985 36.823 38.81499999999998 C 36.973 38.45699999999999 37.182 38.146999999999984 37.449 37.881999999999984 C 37.711999999999996 37.61799999999998 38.022999999999996 37.408999999999985 38.379 37.253999999999984 C 38.744301045123734 37.09817225442068 39.13786642044657 37.0195272702515 39.535 37.02299999999998 z M 77.365 37.02299999999999 C 77.755 37.02299999999999 78.128 37.09999999999999 78.48299999999999 37.25399999999999 C 79.18377179221964 37.559282395352426 79.7449126833456 38.11578575845257 80.05599999999998 38.81399999999999 C 80.21399999999998 39.16499999999999 80.29199999999999 39.53499999999999 80.29199999999999 39.92499999999999 C 80.29199999999999 40.33099999999999 80.216 40.71499999999999 80.067 41.07499999999999 C 79.91399999999999 41.43499999999999 79.707 41.75199999999999 79.442 42.02199999999999 C 79.17512938331791 42.29638326133452 78.85760769536603 42.51644107287765 78.50699999999999 42.669999999999995 C 77.78182305255652 42.9870374908551 76.95828909225305 42.992460234228474 76.22899999999998 42.684999999999995 C 75.87806631559569 42.53945150919945 75.5582937657344 42.32796711581985 75.28699999999999 42.062 C 75.01386193770142 41.797919401674314 74.79389089752567 41.48391753105307 74.639 41.137 C 74.32624154431984 40.403554011613934 74.32479788180605 39.57453081306848 74.63499999999999 38.84 C 74.79199999999999 38.480000000000004 75.002 38.166000000000004 75.26499999999999 37.898 C 75.52999999999999 37.631 75.84499999999998 37.418000000000006 76.20499999999998 37.258 C 76.57113950426927 37.09992242119049 76.96620560470548 37.01988747842971 77.36499999999998 37.023 z M 7.35199999999999 37.02299999999999 C 7.7449999999999894 37.02299999999999 8.11699999999999 37.09999999999999 8.47199999999999 37.25399999999999 C 8.82799999999999 37.40899999999999 9.13999999999999 37.61999999999999 9.40499999999999 37.88799999999999 C 9.67499999999999 38.15399999999999 9.88999999999999 38.46399999999999 10.047999999999991 38.81499999999999 C 10.206999999999992 39.16499999999999 10.283999999999992 39.53499999999999 10.283999999999992 39.92499999999999 C 10.287059190927998 40.708504036614535 9.981735475064339 41.46175560386876 9.43399999999999 42.02199999999999 C 9.166999999999993 42.294999999999995 8.855999999999993 42.50999999999999 8.497999999999992 42.669999999999995 C 8.136999999999992 42.831999999999994 7.757999999999992 42.913999999999994 7.351999999999992 42.913999999999994 C 6.951999999999992 42.913999999999994 6.573999999999993 42.836999999999996 6.2169999999999925 42.68599999999999 C 5.864290313226337 42.5411153332196 5.54302602813831 42.32920316208331 5.270999999999993 42.06199999999999 C 4.997403461538712 41.79874599314969 4.777948988531569 41.48451164712553 4.624999999999993 41.13699999999999 C 4.4647109333890045 40.7784332683388 4.382884390535033 40.389757189782436 4.384999999999993 39.99699999999999 C 4.382184852554407 38.80489877444997 5.093121803304388 37.72687415716315 6.189999999999999 37.26 C 6.557167792467627 37.10173074163527 6.953182004004526 37.02137016216605 7.353 37.024 z M 1.9749999999999899 37.02299999999999 C 2.1859999999999897 37.02299999999999 2.38899999999999 37.06299999999999 2.5779999999999896 37.14599999999999 C 2.9492191079432057 37.29953611699433 3.2461564969188696 37.59145282548007 3.40599999999999 37.95999999999999 C 3.4896097461381395 38.14433014266813 3.5322562005394684 38.344597892536775 3.5309999999999895 38.54699999999999 L 2.7679999999999896 38.54699999999999 C 2.7679999999999896 38.29999999999999 2.6849999999999894 38.10599999999999 2.5159999999999894 37.96499999999999 C 2.3401698046831845 37.8218651124936 2.1186144860721665 37.74694816982225 1.8919999999999892 37.75399999999999 C 1.6825837366493084 37.74909317715739 1.4805187246470966 37.83129525193248 1.333999999999989 37.98099999999999 C 1.1845628635800043 38.12679881865526 1.1026621580884273 38.32828904986462 1.1079999999999892 38.536999999999985 C 1.1079999999999892 38.69399999999998 1.1339999999999892 38.822999999999986 1.1909999999999892 38.92199999999998 C 1.2439999999999891 39.021999999999984 1.3199999999999892 39.10599999999998 1.4129999999999892 39.17599999999998 C 1.5029999999999892 39.24299999999998 1.6099999999999892 39.29999999999998 1.731999999999989 39.34399999999998 C 1.8519999999999892 39.38899999999998 1.974999999999989 39.43399999999998 2.097999999999989 39.47299999999998 C 2.3099999999999894 39.54299999999998 2.5119999999999894 39.61799999999998 2.700999999999989 39.699999999999974 C 2.890999999999989 39.781999999999975 3.055999999999989 39.88799999999998 3.201999999999989 40.013999999999974 C 3.345999999999989 40.13999999999997 3.461999999999989 40.293999999999976 3.547999999999989 40.47199999999997 C 3.631999999999989 40.65199999999997 3.675999999999989 40.867999999999974 3.675999999999989 41.120999999999974 C 3.675999999999989 41.388999999999974 3.628999999999989 41.632999999999974 3.535999999999989 41.85299999999997 C 3.360555340904834 42.28327842576073 3.0137707604778656 42.62100384786933 2.5789999999999886 42.784999999999975 C 2.3460812811073573 42.87148756117146 2.0994548522331895 42.915189222331854 1.850999999999989 42.91399999999997 C 1.6164777715205951 42.915771425801935 1.384400058803205 42.86628426647249 1.1709999999999892 42.76899999999997 C 0.7486441349256441 42.58157451866733 0.41681461341591175 42.235739205665304 0.24699999999998923 41.80599999999997 C 0.16011744708899198 41.58863046009203 0.12287771741761805 41.35460096628569 0.13799999999998935 41.12099999999997 L 0.9039999999999891 41.12099999999997 C 0.8939999999999891 41.26599999999997 0.9189999999999892 41.40099999999997 0.9679999999999891 41.52899999999997 C 1.0199999999999891 41.65599999999997 1.092999999999989 41.76899999999997 1.1849999999999892 41.86699999999997 C 1.3760491016795091 42.06950180907618 1.6426041822600552 42.18358448622682 1.9209999999999892 42.18199999999997 C 2.1969999999999894 42.18199999999997 2.4309999999999894 42.09499999999996 2.623999999999989 41.923999999999964 C 2.816072225030613 41.75132216579625 2.92126818248508 41.502077388552216 2.910999999999989 41.243999999999964 C 2.9150993787477244 41.09495186617802 2.884278385702599 40.947011099561415 2.820999999999989 40.81199999999996 C 2.7599315829586124 40.69623438752298 2.6754808837519093 40.59441681065683 2.572999999999989 40.51299999999996 C 2.46598865362324 40.42937697949918 2.348279693308185 40.36043315988608 2.2229999999999888 40.307999999999964 C 2.1229999999999887 40.26599999999996 2.023999999999989 40.227999999999966 1.9219999999999888 40.194999999999965 L 1.8179999999999887 40.16299999999997 C 1.6365485599691654 40.10702489231234 1.4568023978752016 40.04566442139343 1.2789999999999873 39.97899999999997 C 1.0988861776059478 39.91122753327692 0.935260786398422 39.805893687687075 0.7989999999999892 39.66999999999997 C 0.6497780677345362 39.53430889167364 0.5329069522976577 39.36686197189566 0.45699999999998897 39.17999999999997 C 0.21730525273190396 38.586913837567785 0.3621778269520606 37.90767521089623 0.8229999999999889 37.46399999999997 C 1.1379890990486916 37.17742271222463 1.5491605719433243 37.01966421307582 1.9749999999999892 37.02199999999997 z M 100.80699999999999 37.02299999999999 C 101.25399999999999 37.02299999999999 101.67099999999999 37.11699999999999 102.05899999999998 37.30699999999999 C 102.44799999999998 37.49499999999999 102.78599999999999 37.76399999999999 103.07699999999998 38.11399999999999 C 103.31527502182078 38.408588339516385 103.4905575999972 38.74894286024732 103.59199999999998 39.11399999999999 C 103.63999999999999 39.28399999999999 103.67499999999998 39.46399999999999 103.69499999999998 39.64899999999999 C 103.71699999999998 39.83499999999999 103.72899999999998 40.030999999999985 103.73799999999999 40.234999999999985 L 98.63199999999999 40.234999999999985 C 98.63699999999999 40.502999999999986 98.70499999999998 40.755999999999986 98.83399999999999 40.99299999999999 C 98.96099999999998 41.22999999999999 99.12199999999999 41.43499999999999 99.31599999999999 41.61099999999999 C 99.51099999999998 41.78499999999999 99.73599999999999 41.92399999999999 99.98799999999999 42.02799999999999 C 100.23999999999998 42.12999999999999 100.49399999999999 42.18299999999999 100.75599999999999 42.18299999999999 C 100.96499999999999 42.18299999999999 101.16699999999999 42.154999999999994 101.37299999999999 42.09899999999999 C 101.579 42.04299999999999 101.77399999999999 41.96499999999999 101.95299999999999 41.85599999999999 C 102.13099999999999 41.75199999999999 102.29199999999999 41.621999999999986 102.439 41.46599999999999 C 102.58 41.31199999999998 102.695 41.13899999999999 102.77499999999999 40.94699999999999 L 103.57199999999999 40.94699999999999 C 103.47499616182746 41.22957080014361 103.33134152412079 41.493895333523895 103.14699999999999 41.728999999999985 C 102.7798599649633 42.2100612901776 102.2773747198031 42.57047170510538 101.704 42.76399999999998 C 101.42197308853636 42.86215392193367 101.12561686186324 42.91284198806932 100.827 42.91399999999998 C 100.41499999999999 42.91399999999998 100.026 42.83699999999998 99.666 42.68599999999998 C 99.31443016506377 42.54215102491596 98.99567578072494 42.328514148326 98.729 42.05799999999998 C 98.46212835399038 41.78791342981055 98.24841608167023 41.470058827962966 98.099 41.12099999999998 C 97.9433289336335 40.75670378892775 97.86468183327406 40.36414921440643 97.86800000000001 39.96799999999998 C 97.86800000000001 39.55699999999998 97.94300000000001 39.170999999999985 98.096 38.81499999999998 C 98.24600000000001 38.45699999999999 98.453 38.146999999999984 98.718 37.881999999999984 C 98.98632128164355 37.615345752197506 99.30295924746933 37.402217517965376 99.65100000000001 37.253999999999984 C 100.01625815559274 37.09803375470665 100.40985278968878 37.019382923844894 100.80700000000002 37.02299999999998 z M 84.34899999999999 37.02299999999999 C 84.752 37.02299999999999 85.15899999999999 37.09999999999999 85.56199999999998 37.25399999999999 C 85.96999999999998 37.40899999999999 86.33099999999999 37.67999999999999 86.64699999999998 38.06199999999999 C 86.81299999999997 38.28199999999999 86.96599999999998 38.55599999999999 87.11099999999998 38.88199999999999 C 87.25599999999997 39.20899999999999 87.32799999999997 39.57799999999999 87.32799999999997 39.98999999999999 C 87.32799999999997 40.408999999999985 87.24499999999998 40.798999999999985 87.07999999999997 41.158999999999985 C 86.75809180519285 41.86997091553866 86.17203808735829 42.42769033489774 85.44599999999997 42.713999999999984 C 85.07599999999996 42.86199999999999 84.68799999999997 42.92899999999999 84.27399999999997 42.91599999999998 C 83.82099999999997 42.899999999999984 83.42699999999998 42.817999999999984 83.09399999999997 42.66299999999998 C 82.76099999999997 42.50799999999998 82.49899999999997 42.338999999999984 82.31399999999996 42.152999999999984 C 82.29000621023364 42.12828303520145 82.26666485065762 42.10294098766176 82.24399999999997 42.076999999999984 L 82.20699999999997 42.033999999999985 C 82.18148410470033 42.00747604637422 82.1593185447968 41.97792196650285 82.14099999999996 41.945999999999984 L 82.14099999999996 44.758999999999986 L 81.36399999999996 44.758999999999986 L 81.37599999999996 39.87699999999999 C 81.37599999999996 39.45699999999999 81.45099999999996 39.072999999999986 81.60399999999996 38.722999999999985 C 81.75299999999996 38.371999999999986 81.96399999999996 38.07199999999998 82.23299999999996 37.820999999999984 C 82.49899999999997 37.570999999999984 82.81799999999996 37.374999999999986 83.17499999999995 37.23399999999998 C 83.53499999999995 37.09399999999998 83.92799999999995 37.02299999999998 84.34899999999996 37.02299999999998 z" stroke-linecap="round" />
</g>
</g>
</g>
</svg>